<?xml version="1.0" standalone="no"?><!DOCTYPE svg PUBLIC "-//W3C//DTD SVG 1.1//EN" "http://www.w3.org/Graphics/SVG/1.1/DTD/svg11.dtd"><svg t="1639131577373" class="icon" viewBox="0 0 1024 1024" version="1.1" xmlns="http://www.w3.org/2000/svg" p-id="21219" xmlns:xlink="http://www.w3.org/1999/xlink" width="200" height="200"><defs><style type="text/css"></style></defs><path d="M576 800v-33.2h35.4c20.8 0 35.6-7.5 44.3-22.4 8.7-15 13.1-37.5 13.1-67.7v-59.3c0-28.5 5-51.9 14.9-70.2s25-29.9 45.2-34.9v-1.7c-19.5-5.3-34.3-17-44.7-35.3-10.3-18.3-15.5-41.3-15.5-68.9v-58.9c0-30.7-4.3-53.4-13.1-68.1-8.7-14.7-23.5-22-44.3-22H576V224h43.3c26.3 0 46.5 10.1 60.5 30.3 14 20.2 21 50 21 89.3v53.5c0 34.6 5.4 59.5 16.3 74.6 10.9 15.1 27.9 23.3 51 24.7v31.2c-23.1 1.4-40.1 9.6-51 24.7-10.9 15.1-16.3 39.9-16.3 74.6v53.5c0 39.3-7 69.1-21 89.3-14 20.2-34.1 30.3-60.5 30.3H576z m-170.3 0c-26.3 0-46.5-10.1-60.5-30.3-14-20.2-21-50-21-89.3v-53.5c0-34.6-5.4-59.5-16.3-74.6-10.9-15.1-27.9-23.3-51-24.7v-31.2c23.1-1.4 40.1-9.6 51-24.7 10.9-15.1 16.3-39.9 16.3-74.6v-53.5c0-39.3 7-69.1 21-89.3 14-20.2 34.1-30.3 60.5-30.3H449v33.2h-35.4c-20.8 0-35.6 7.3-44.3 22-8.7 14.7-13.1 37.4-13.1 68.1v58.9c0 27.7-5.2 50.7-15.5 68.9-10.3 18.3-25.2 30-44.7 35.3v1.7c20.1 5 35.2 16.6 45.2 34.9s14.9 41.7 14.9 70.2v59.3c0 30.2 4.3 52.7 13.1 67.7 8.7 15 23.5 22.4 44.3 22.4H449V800h-43.3z" fill="#010101" p-id="21220"></path></svg>