<?xml version="1.0" standalone="no"?><!DOCTYPE svg PUBLIC "-//W3C//DTD SVG 1.1//EN" "http://www.w3.org/Graphics/SVG/1.1/DTD/svg11.dtd"><svg t="1639133855896" class="icon" viewBox="0 0 1024 1024" version="1.1" xmlns="http://www.w3.org/2000/svg" p-id="14311" xmlns:xlink="http://www.w3.org/1999/xlink" width="200" height="200"><defs><style type="text/css"></style></defs><path d="M479.615429 372.021945l0 155.216107c-8.769734 78.782298-47.084365 113.813139-114.89068 124.738979L364.724749 599.455841c21.849634-2.15406 36.108383-18.566868 42.673915-49.239448l0-22.978341-72.204485 0L335.194178 372.021945 479.615429 372.021945zM688.806845 372.021945l0 155.216107c-8.769734 76.628238-47.084365 111.608937-114.891703 124.738979L573.915142 599.455841c8.720615-2.15406 17.49035-8.719592 26.261107-19.695574 8.720615-10.92584 14.207583-20.773116 16.412808-29.543873l0-22.978341-71.120804 0L545.468253 372.021945 688.806845 372.021945z" p-id="14312"></path></svg>